<svg xmlns="http://www.w3.org/2000/svg" viewBox="0 0 408.69 465.55"><defs><style>.cls-1,.cls-2{fill:#fffffe;}.cls-2{stroke:#16161a;stroke-miterlimit:10;stroke-width:2px;}</style></defs><g id="Calque_2" data-name="Calque 2"><g id="Calque_1-2" data-name="Calque 1"><path class="cls-1" d="M408.69,329.68a140.94,140.94,0,0,1-5.27,39.51,118.91,118.91,0,0,1-14.77,32.47,111,111,0,0,1-22.93,25.28,131.31,131.31,0,0,1-30.23,18.26,167.66,167.66,0,0,1-36,11.06,234.66,234.66,0,0,1-44,3.69H140.71a23.55,23.55,0,0,1-14.77-5.44q-7-5.44-7-19.14V30.18q0-13.69,7-19.14A23.61,23.61,0,0,1,140.71,5.6h99.86q39.39,0,64.53,7.72T347,35.8A93,93,0,0,1,372.35,72q8.47,21.42,8.49,48.46a125.3,125.3,0,0,1-3.74,30.89,103.94,103.94,0,0,1-11,27.22,91.9,91.9,0,0,1-18.34,22.29A96.28,96.28,0,0,1,322.42,217,104.42,104.42,0,0,1,356,229.79a103.31,103.31,0,0,1,27.34,23.7,111.36,111.36,0,0,1,18.51,33.71A127.19,127.19,0,0,1,408.69,329.68Zm-88-203.29a94.83,94.83,0,0,0-4.41-29.85,55.53,55.53,0,0,0-13.89-22.65q-9.48-9.3-24.73-14.22t-40.32-4.91H177.05V201.88h66.41q22.71,0,36.6-6.15a65.51,65.51,0,0,0,23-16.5A64.47,64.47,0,0,0,316.48,155,97.16,97.16,0,0,0,320.72,126.39ZM347.21,333.2q0-20.37-6.27-35.82a67.88,67.88,0,0,0-18.3-26q-12-10.53-30.17-16T246.88,250H177.05V410.09h84.74q20,0,34.92-4.92A77.52,77.52,0,0,0,323,390.6a66.91,66.91,0,0,0,17.79-24.05Q347.21,352.17,347.21,333.2Z"/><path class="cls-2" d="M274.33,227.4C280.26,442,150.69,481.13,6.65,459.17,1.46,458.37,1,449,1,439.75V28.59C.5,12.52,8.32,4.12,18.6,3.65,150.61-9.69,276.48,21.87,274.33,227.4Zm-49.72,2.49C225.77,82.81,150.61,43,48.27,54.6V413.38C161.9,420.29,222.68,394.56,224.61,229.89Z"/></g></g></svg>